<?xml version="1.0" encoding="utf-8"?>
<!-- Generator: Adobe Illustrator 24.0.1, SVG Export Plug-In . SVG Version: 6.00 Build 0)  -->
<svg version="1.1" id="Layer_1" xmlns="http://www.w3.org/2000/svg" xmlns:xlink="http://www.w3.org/1999/xlink" x="0px" y="0px"
	 viewBox="0 0 29.4 42.4" style="enable-background:new 0 0 29.4 42.4;" xml:space="preserve">
<style type="text/css">
	.st0{fill:#FFFFFF;}
	.st1{opacity:0.62;fill:#FFFFFF;enable-background:new    ;}
</style>
<g id="Layer_2_1_">
	<g id="Layer_2-2">
		<path class="st0" d="M28.9,18.3l-0.1,0.1l0,0l-0.1,0.1L19,30.2v1.1h-3.4v1.2H19v1.5h-3.4v1.2H19v1.6h-2v1.2h2v3.5
			c-0.2,0.6-0.7,1-1.3,1c-0.3,0-0.5-0.1-0.7-0.2l-6.5-4.5c-0.3-0.2-0.5-0.6-0.5-1l-0.2-6.2c0-0.4-0.1-0.7-0.4-1l-8.8-11
			c0,0,0-0.1-0.1-0.1c-0.1-0.2-0.2-0.3-0.2-0.5c0.1,0.2,0.1,0.4,0.3,0.5H28.9z"/>
		<path class="st0" d="M29.3,15.1v2.1H0.2v-2.1c0-1.2,1.1-2.2,2.3-2.1h24.4C28.2,12.9,29.2,13.9,29.3,15.1z"/>
		<circle class="st1" cx="8.5" cy="9.5" r="2.7"/>
		<circle class="st1" cx="16.4" cy="3.4" r="3.4"/>
		<path class="st1" d="M23.9,12.1c0,0.3,0,0.6-0.1,0.9h-5.1c-0.5-1.4,0.3-3,1.7-3.4c1.4-0.5,3,0.3,3.4,1.7
			C23.9,11.5,23.9,11.8,23.9,12.1z"/>
		<polyline class="st0" points="19,35.1 19,35.1 19,33.9 19,33.9 		"/>
	</g>
</g>
</svg>
