<?xml version="1.0" encoding="utf-8"?>
<!-- Generator: Adobe Illustrator 24.0.1, SVG Export Plug-In . SVG Version: 6.00 Build 0)  -->
<svg version="1.1" fill="white" id="Layer_1" xmlns="http://www.w3.org/2000/svg" xmlns:xlink="http://www.w3.org/1999/xlink" x="0px" y="0px"
	 viewBox="0 0 67.9 36.7" style="enable-background:new 0 0 67.9 36.7;" xml:space="preserve">
<title>logo</title>
<g id="Layer_2_1_">
	<g id="Layer_2-2">
		<path d="M3.2,21.2c0.3,0.6,0.3,1.2,0.2,1.8c-0.1,0.5-0.2,1.1-0.3,1.6c-0.1,0.5-0.3,1.5,0,1.8c0.3,0.4,0.9,0.3,1.7,0.3
			c3.1-0.6,6.1-1.4,9.1-2.7c0.6-0.2,1.1-0.5,1.7-0.9c1.1-0.9,1.3-2.7,1.3-2.7c0-0.3,0-0.8-0.4-1.1c-0.3-0.2-0.8-0.1-1.5,0.1
			c-1.2,0.3-4,1.4-5,1.7c-0.4,0.1-1.2,0.3-1.5-0.1c-0.5-0.6,0.2-2.6,0.7-3.7c0.4-1.1,1.1-2,3.2-2.6c0.8-0.2,2-0.6,2.5-0.8
			c0.8-0.2,1.5-0.9,1.6-1.8c0.4-1.4-0.7-1.6-1.7-1.9c-1.4-0.4-2.3-0.4-1.7-1.8c0.2-0.5,0.6-0.8,1.1-0.9c0.6-0.1,5.4-0.9,7.3-1.2
			c1.1-0.2,1.4-0.8,1.9-1.7c1-2-0.2-2.1-1.2-2c-2.2,0.2-5.8,0.8-7.3,1.1c-0.8,0.1-0.3-1.3-1.2-1.3C12,2.4,10.5,2.8,9.3,3.6
			C8.7,4,8.4,5.5,8.4,5.5l-1.9,6.3c-0.2,0.7-0.4,1.4-0.9,1.8c-1.3,0.8-3.9,0.8-3.7,3.6C2,17.1,2.1,18.5,3.2,21.2L3.2,21.2z M20,9.4
			c0.7-0.1,1.7-0.3,2,1.6c0.1,0.6,0.1,7.1,0.1,7.1s0.7-0.7,2.9-4.1c1.7-2.6,3.5-5.9,4.2-7.1c0.4-0.7,1.2-1.4,2.4-0.4
			c1.4,1.1,1.5,1.8,0.8,2.9s-2.4,4-4.9,7.4c-2.2,3.1-3.3,4.3-4.3,5.4c-0.9,1-2.2,2.2-3.5,2c-1.7-0.2-1.6-3.2-1.7-4
			c-0.1-0.8-0.4-7.5-0.2-9.1C18.1,10.5,18.1,9.8,20,9.4L20,9.4z M43.6,9.6c0.8,0.4-0.1,2.3-1.7,3.4c-1,0.7-2.7,1.8-4.5,1.8
			c0.7-1.3,1.7-2.4,2.7-3.5C41.4,10.1,42.9,9.2,43.6,9.6L43.6,9.6z M65.3,9.2c0.8-1,0.9-1.6-0.4-2.8c-1.2-1.1-1.9-0.5-2.5,0.1
			c-0.1,0.1-2.7,2.7-5.5,5.8c-2.1,2.4-4,4.7-4,4.7c0-1.1,0-2.3,0.2-3.4c0.1-1.1,0.5-3.2,0.6-3.9c0.5-3.4-1.6-3.5-2.4-3.6
			C50.7,6,50.2,6.5,50,7.5c-0.2,0.9-1.5,6.2-1,11.5c0.1,0.7,0.2,1.4,0.3,2l-0.5,0.7c-2.9-0.9-5.6-2.4-7.9-4.4
			c1.1-0.4,2.2-0.8,3.2-1.5c1.3-0.8,3.9-2.8,3.6-6.3c-0.2-3-3.4-4.3-4.6-4.1c-1.1,0.2-2.9,1.5-4.7,3c-0.1-0.8-0.1-1.7-1-1.8
			C37,6.7,36.3,7,35.7,7.2c-0.6,0.3-1,0.7-1.3,1.3l-2,4.4c-0.1,0.1-0.2,0.2-0.3,0.2c-0.7,0.1-1.2,0.6-1.5,1.2
			c-0.2,0.6-0.1,1.3,0.3,1.8c-0.4,1-1.4,3.4-1.4,3.4c-1.3,2.9-1.2,4-0.7,4.6c0.2,0.3,1,0.8,2,0.9c0.7,0.1,1.3-0.3,1.9-1.3
			c0.9-1.4,2.8-5.2,2.8-5.2s3.7,3.9,11,6.5c0,0-3.9,5.3-4.4,8.2c0,0-0.3,1.9,2.3,1.9c0.8,0,1.6-0.2,2.4-0.6c0.3-0.2,0.5-0.4,0.6-0.8
			c0-0.1,0-0.3-0.1-0.4c-0.1-0.1-0.2-0.2-0.3-0.3c-0.1-0.1-0.1-0.3,0-0.5c1.4-4.1,7.3-11.1,8.5-12.6C58.8,16,64.9,9.7,65.3,9.2
			L65.3,9.2z"/>
	</g>
</g>
</svg>
